<svg width="171" height="32" viewBox="0 0 171 32" fill="none" xmlns="http://www.w3.org/2000/svg">
<path d="M68.944 10.74C69.4293 10.74 69.8306 10.8987 70.148 11.216C70.4653 11.5333 70.624 11.944 70.624 12.448V24.292C70.624 24.7773 70.4653 25.188 70.148 25.524C69.8306 25.8413 69.4293 26 68.944 26C68.4586 26 68.0573 25.8413 67.74 25.524C67.4413 25.2067 67.2826 24.8053 67.264 24.32C66.7973 24.8613 66.1626 25.328 65.36 25.72C64.576 26.0933 63.7453 26.28 62.868 26.28C61.58 26.28 60.4133 25.9533 59.368 25.3C58.3226 24.628 57.492 23.704 56.876 22.528C56.2786 21.352 55.98 20.0173 55.98 18.524C55.98 17.0307 56.2786 15.696 56.876 14.52C57.4733 13.3253 58.2853 12.4013 59.312 11.748C60.3573 11.076 61.5053 10.74 62.756 10.74C63.652 10.74 64.492 10.908 65.276 11.244C66.06 11.5613 66.7226 11.972 67.264 12.476V12.448C67.264 11.9627 67.4226 11.5613 67.74 11.244C68.0573 10.908 68.4586 10.74 68.944 10.74ZM63.288 23.2C64.5013 23.2 65.4906 22.7613 66.256 21.884C67.0213 20.988 67.404 19.868 67.404 18.524C67.404 17.18 67.0213 16.06 66.256 15.164C65.4906 14.268 64.5013 13.82 63.288 13.82C62.0933 13.82 61.1133 14.268 60.348 15.164C59.5826 16.06 59.2 17.18 59.2 18.524C59.2 19.868 59.5733 20.988 60.32 21.884C61.0853 22.7613 62.0746 23.2 63.288 23.2Z" fill="black"/>
<path d="M77.4293 24.292C77.4293 24.7773 77.2706 25.188 76.9533 25.524C76.636 25.8413 76.2346 26 75.7493 26C75.264 26 74.8626 25.8413 74.5453 25.524C74.228 25.188 74.0693 24.7773 74.0693 24.292V12.728C74.0693 12.2427 74.228 11.8413 74.5453 11.524C74.8626 11.188 75.264 11.02 75.7493 11.02C76.2346 11.02 76.636 11.188 76.9533 11.524C77.2706 11.8413 77.4293 12.2427 77.4293 12.728V24.292ZM75.7213 9.20001C75.0866 9.20001 74.6386 9.09735 74.3773 8.89201C74.116 8.68668 73.9853 8.32268 73.9853 7.80001V7.26801C73.9853 6.74535 74.1253 6.38135 74.4053 6.17601C74.6853 5.97068 75.1333 5.86801 75.7493 5.86801C76.4026 5.86801 76.86 5.97068 77.1213 6.17601C77.3826 6.38135 77.5133 6.74535 77.5133 7.26801V7.80001C77.5133 8.34134 77.3733 8.71468 77.0933 8.92001C76.832 9.10668 76.3746 9.20001 75.7213 9.20001Z" fill="black"/>
<path d="M93.0065 10.74C93.4918 10.74 93.8931 10.8987 94.2105 11.216C94.5278 11.5333 94.6865 11.944 94.6865 12.448V24.292C94.6865 24.7773 94.5278 25.188 94.2105 25.524C93.8931 25.8413 93.4918 26 93.0065 26C92.5211 26 92.1198 25.8413 91.8025 25.524C91.5038 25.2067 91.3451 24.8053 91.3265 24.32C90.8598 24.8613 90.2251 25.328 89.4225 25.72C88.6385 26.0933 87.8078 26.28 86.9305 26.28C85.6425 26.28 84.4758 25.9533 83.4305 25.3C82.3851 24.628 81.5545 23.704 80.9385 22.528C80.3411 21.352 80.0425 20.0173 80.0425 18.524C80.0425 17.0307 80.3411 15.696 80.9385 14.52C81.5358 13.3253 82.3478 12.4013 83.3745 11.748C84.4198 11.076 85.5678 10.74 86.8185 10.74C87.7145 10.74 88.5545 10.908 89.3385 11.244C90.1225 11.5613 90.7851 11.972 91.3265 12.476V12.448C91.3265 11.9627 91.4851 11.5613 91.8025 11.244C92.1198 10.908 92.5211 10.74 93.0065 10.74ZM87.3505 23.2C88.5638 23.2 89.5531 22.7613 90.3185 21.884C91.0838 20.988 91.4665 19.868 91.4665 18.524C91.4665 17.18 91.0838 16.06 90.3185 15.164C89.5531 14.268 88.5638 13.82 87.3505 13.82C86.1558 13.82 85.1758 14.268 84.4105 15.164C83.6451 16.06 83.2625 17.18 83.2625 18.524C83.2625 19.868 83.6358 20.988 84.3825 21.884C85.1478 22.7613 86.1371 23.2 87.3505 23.2Z" fill="black"/>
<path d="M109.36 23.34C109.602 23.6387 109.724 23.9747 109.724 24.348C109.724 24.8147 109.546 25.216 109.192 25.552C108.837 25.888 108.445 26.056 108.016 26.056C107.474 26.056 107.017 25.8133 106.644 25.328L103.284 21.156L100.008 25.328C99.8398 25.552 99.6345 25.7293 99.3918 25.86C99.1678 25.972 98.9251 26.028 98.6638 26.028C98.2718 26.028 97.8985 25.8787 97.5438 25.58C97.1891 25.2813 97.0118 24.936 97.0118 24.544C97.0118 24.1707 97.1518 23.816 97.4318 23.48L101.324 18.72L97.2918 13.708C97.0491 13.4093 96.9278 13.0733 96.9278 12.7C96.9278 12.2333 97.0958 11.8413 97.4318 11.524C97.7865 11.188 98.1878 11.02 98.6358 11.02C99.1771 11.02 99.6345 11.2533 100.008 11.72L103.452 16.004L106.644 11.776C106.998 11.272 107.446 11.02 107.988 11.02C108.436 11.02 108.809 11.1787 109.108 11.496C109.425 11.7947 109.584 12.14 109.584 12.532C109.584 12.9427 109.453 13.3067 109.192 13.624L105.328 18.328L109.36 23.34Z" fill="black"/>
<path d="M111.105 23.676C110.937 23.452 110.853 23.172 110.853 22.836C110.853 22.3507 111.095 21.94 111.581 21.604C111.842 21.436 112.113 21.352 112.393 21.352C112.785 21.352 113.158 21.5294 113.513 21.884C114.073 22.4627 114.651 22.892 115.249 23.172C115.865 23.452 116.602 23.592 117.461 23.592C118.917 23.536 119.645 22.9854 119.645 21.94C119.645 21.3987 119.393 20.988 118.889 20.708C118.403 20.428 117.638 20.148 116.593 19.868C115.51 19.5694 114.623 19.2707 113.933 18.972C113.261 18.6734 112.673 18.2254 112.169 17.628C111.683 17.012 111.441 16.1907 111.441 15.164C111.441 14.268 111.693 13.4934 112.197 12.84C112.719 12.168 113.391 11.6547 114.213 11.3C115.053 10.9267 115.939 10.74 116.873 10.74C117.825 10.74 118.777 10.9174 119.729 11.272C120.681 11.6267 121.427 12.1494 121.969 12.84C122.211 13.1387 122.333 13.4747 122.333 13.848C122.333 14.2774 122.155 14.632 121.801 14.912C121.539 15.1174 121.241 15.22 120.905 15.22C120.494 15.22 120.158 15.0894 119.897 14.828C119.561 14.4174 119.122 14.0907 118.581 13.848C118.058 13.6054 117.461 13.484 116.789 13.484C115.37 13.484 114.661 13.9974 114.661 15.024C114.661 15.4347 114.791 15.7707 115.053 16.032C115.314 16.2747 115.641 16.4707 116.033 16.62C116.443 16.7507 117.013 16.9187 117.741 17.124C118.749 17.404 119.589 17.6934 120.261 17.992C120.933 18.2907 121.502 18.748 121.969 19.364C122.435 19.98 122.669 20.792 122.669 21.8C122.669 22.7147 122.398 23.5174 121.857 24.208C121.315 24.88 120.615 25.3934 119.757 25.748C118.917 26.1027 118.049 26.28 117.153 26.28C115.921 26.28 114.773 26.0747 113.709 25.664C112.645 25.2534 111.777 24.5907 111.105 23.676Z" fill="#1FD869"/>
<path d="M132.004 10.74C133.591 10.74 134.87 10.992 135.84 11.496C136.811 11.9814 137.296 12.6347 137.296 13.456C137.296 13.8667 137.175 14.2307 136.932 14.548C136.69 14.8467 136.372 14.996 135.98 14.996C135.682 14.996 135.439 14.9587 135.252 14.884C135.066 14.7907 134.879 14.6787 134.692 14.548C134.524 14.3987 134.356 14.2774 134.188 14.184C134.002 14.0907 133.722 14.0067 133.348 13.932C132.994 13.8574 132.704 13.82 132.48 13.82C131.08 13.82 129.979 14.2587 129.176 15.136C128.392 15.9947 128 17.124 128 18.524C128 19.868 128.402 20.988 129.204 21.884C130.007 22.7614 131.034 23.2 132.284 23.2C133.199 23.2 133.88 23.088 134.328 22.864C134.44 22.808 134.59 22.7147 134.776 22.584C134.982 22.4347 135.168 22.3227 135.336 22.248C135.504 22.1734 135.71 22.136 135.952 22.136C136.419 22.136 136.783 22.2854 137.044 22.584C137.324 22.8827 137.464 23.2654 137.464 23.732C137.464 24.18 137.203 24.6 136.68 24.992C136.158 25.384 135.467 25.7014 134.608 25.944C133.75 26.168 132.835 26.28 131.864 26.28C130.427 26.28 129.158 25.944 128.056 25.272C126.974 24.6 126.134 23.676 125.536 22.5C124.939 21.3054 124.64 19.98 124.64 18.524C124.64 17.012 124.948 15.668 125.564 14.492C126.199 13.316 127.076 12.4014 128.196 11.748C129.316 11.076 130.586 10.74 132.004 10.74Z" fill="#1FD869"/>
<path d="M152.015 10.74C152.5 10.74 152.901 10.8987 153.219 11.216C153.536 11.5334 153.695 11.944 153.695 12.448V24.292C153.695 24.7774 153.536 25.188 153.219 25.524C152.901 25.8414 152.5 26 152.015 26C151.529 26 151.128 25.8414 150.811 25.524C150.512 25.2067 150.353 24.8054 150.335 24.32C149.868 24.8614 149.233 25.328 148.431 25.72C147.647 26.0934 146.816 26.28 145.939 26.28C144.651 26.28 143.484 25.9534 142.439 25.3C141.393 24.628 140.563 23.704 139.947 22.528C139.349 21.352 139.051 20.0174 139.051 18.524C139.051 17.0307 139.349 15.696 139.947 14.52C140.544 13.3254 141.356 12.4014 142.383 11.748C143.428 11.076 144.576 10.74 145.827 10.74C146.723 10.74 147.563 10.908 148.347 11.244C149.131 11.5614 149.793 11.972 150.335 12.476V12.448C150.335 11.9627 150.493 11.5614 150.811 11.244C151.128 10.908 151.529 10.74 152.015 10.74ZM146.359 23.2C147.572 23.2 148.561 22.7614 149.327 21.884C150.092 20.988 150.475 19.868 150.475 18.524C150.475 17.18 150.092 16.06 149.327 15.164C148.561 14.268 147.572 13.82 146.359 13.82C145.164 13.82 144.184 14.268 143.419 15.164C142.653 16.06 142.271 17.18 142.271 18.524C142.271 19.868 142.644 20.988 143.391 21.884C144.156 22.7614 145.145 23.2 146.359 23.2Z" fill="#1FD869"/>
<path d="M165.344 10.74C167.248 10.74 168.564 11.3094 169.292 12.448C170.02 13.568 170.384 15.1267 170.384 17.124V24.292C170.384 24.7774 170.225 25.188 169.908 25.524C169.59 25.8414 169.189 26 168.704 26C168.218 26 167.817 25.8414 167.5 25.524C167.182 25.188 167.024 24.7774 167.024 24.292V17.124C167.024 16.0974 166.809 15.2947 166.38 14.716C165.95 14.1187 165.213 13.82 164.168 13.82C163.085 13.82 162.236 14.1374 161.62 14.772C161.004 15.388 160.696 16.172 160.696 17.124V24.292C160.696 24.7774 160.537 25.188 160.22 25.524C159.902 25.8414 159.501 26 159.016 26C158.53 26 158.129 25.8414 157.812 25.524C157.494 25.188 157.336 24.7774 157.336 24.292V12.728C157.336 12.2427 157.494 11.8414 157.812 11.524C158.129 11.188 158.53 11.02 159.016 11.02C159.501 11.02 159.902 11.188 160.22 11.524C160.537 11.8414 160.696 12.2427 160.696 12.728V13.204C161.2 12.532 161.853 11.9534 162.656 11.468C163.477 10.9827 164.373 10.74 165.344 10.74Z" fill="#1FD869"/>
<g clip-path="url(#clip0_205_1434)">
<path d="M15.503 32C13.4504 32 11.4517 31.5609 9.56111 30.7101C7.72451 29.9142 6.07697 28.7616 4.64551 27.307C3.21404 25.8525 2.07968 24.1509 1.26941 22.2573C0.43214 20.2539 0 18.1681 0 16C0 13.8319 0.43214 11.7461 1.26941 9.74271C2.07968 7.84906 3.21404 6.14751 4.64551 4.69297C6.07697 3.23842 7.72451 2.08576 9.56111 1.28988C11.4787 0.439108 13.4504 0.0274443 15.476 0C15.476 0 15.476 0 15.503 0C19.1222 0 22.7144 1.59177 26.1445 4.74786C28.6293 7.02573 31.0871 10.1544 33.4099 14.024C37.2721 20.446 39.5679 26.7856 39.6759 27.0326C40.3241 28.8165 39.4058 30.765 37.6772 31.4237C35.9217 32.0823 34.004 31.1492 33.3558 29.3928C33.3288 29.3379 31.1681 23.3551 27.63 17.5369C25.6313 14.2436 23.6057 11.6364 21.607 9.82504C19.4733 7.84906 17.3937 6.86106 15.503 6.86106C10.8305 6.86106 6.72518 11.1424 6.72518 16.0274C6.72518 20.8851 10.8305 25.1664 15.503 25.1938C17.6907 25.1938 20.0945 23.8491 22.6604 21.1595C23.9568 19.8148 26.0905 19.7599 27.4139 21.0772C28.7373 22.3945 28.7914 24.5626 27.4949 25.9074C23.6327 29.9417 19.6084 32 15.503 32Z" fill="black"/>
<path d="M36.516 31.6432C35.1386 31.6432 33.8421 30.7925 33.356 29.3928C33.329 29.3379 31.4113 24.0137 28.2243 18.5249C26.4147 15.3962 24.5781 12.8165 22.7145 10.8954C20.6618 8.72727 18.6632 7.40995 16.7996 6.99828C14.99 6.58662 13.8556 4.7753 14.2338 2.90909C14.6389 1.07032 16.4215 -0.0823356 18.2581 0.301884C23.7949 1.56432 29.1156 6.53173 34.0852 15.1218C37.5693 21.1595 39.595 26.7856 39.676 27.0326C40.3242 28.8165 39.4059 30.765 37.6774 31.4237C37.2993 31.5609 36.8941 31.6432 36.516 31.6432Z" fill="black"/>
<path d="M22.6605 21.1321C20.6078 23.3002 18.6362 24.5901 16.7996 25.0017C14.99 25.4134 13.8556 27.2522 14.2608 29.0909C14.6119 30.6827 15.9893 31.753 17.5288 31.753C17.7719 31.753 18.015 31.7256 18.2581 31.6707C21.3911 30.9571 24.4971 29.0086 27.468 25.88C28.7645 24.5352 28.7375 22.3671 27.387 21.0498C26.0636 19.7599 23.9569 19.7873 22.6605 21.1321Z" fill="black"/>
<path d="M37.7854 0.219568C36.0298 -0.439095 34.1122 0.49401 33.464 2.25044C33.464 2.27789 32.8698 3.86965 31.8434 6.20242C31.0872 7.9314 31.8434 9.93483 33.545 10.7307C34.0041 10.9228 34.4633 11.0326 34.9224 11.0326C36.2189 11.0326 37.4342 10.2916 38.0014 9.00173C39.1358 6.42197 39.784 4.66554 39.811 4.5832C40.4322 2.79933 39.5139 0.850785 37.7854 0.219568Z" fill="black"/>
</g>
<defs>
<clipPath id="clip0_205_1434">
<rect width="40" height="32" fill="white"/>
</clipPath>
</defs>
</svg>
